<?xml version="1.0" encoding="UTF-8" standalone="no"?>
<!-- Created with Inkscape (http://www.inkscape.org/) -->
<svg
   xmlns:dc="http://purl.org/dc/elements/1.1/"
   xmlns:cc="http://creativecommons.org/ns#"
   xmlns:rdf="http://www.w3.org/1999/02/22-rdf-syntax-ns#"
   xmlns:svg="http://www.w3.org/2000/svg"
   xmlns="http://www.w3.org/2000/svg"
   xmlns:xlink="http://www.w3.org/1999/xlink"
   xmlns:sodipodi="http://sodipodi.sourceforge.net/DTD/sodipodi-0.dtd"
   xmlns:inkscape="http://www.inkscape.org/namespaces/inkscape"
   width="32px"
   height="32px"
   id="svg3499"
   sodipodi:version="0.32"
   inkscape:version="0.46"
   sodipodi:docname="add-notification-applet.svg"
   inkscape:output_extension="org.inkscape.output.svg.inkscape">
  <defs
     id="defs3501">
    <linearGradient
       id="linearGradient3547">
      <stop
         style="stop-color:#cfcfcf;stop-opacity:1;"
         offset="0"
         id="stop3549" />
      <stop
         id="stop3553"
         offset="0.46295282"
         style="stop-color:#8e8e92;stop-opacity:1;" />
      <stop
         style="stop-color:#f5f5f5;stop-opacity:1;"
         offset="1"
         id="stop3557" />
    </linearGradient>
    <linearGradient
       id="linearGradient3245">
      <stop
         style="stop-color:#414141;stop-opacity:1;"
         offset="0"
         id="stop3247" />
      <stop
         style="stop-color:#000000;stop-opacity:1;"
         offset="1"
         id="stop3249" />
    </linearGradient>
    <filter
       inkscape:collect="always"
       id="filter3374"
       x="-0.21687568"
       width="1.4337514"
       y="-0.10843168"
       height="1.2168634">
      <feGaussianBlur
         inkscape:collect="always"
         stdDeviation="0.99401352"
         id="feGaussianBlur3376" />
    </filter>
    <linearGradient
       inkscape:collect="always"
       xlink:href="#linearGradient3547"
       id="linearGradient3565"
       gradientUnits="userSpaceOnUse"
       gradientTransform="translate(0,39)"
       x1="-230.10732"
       y1="54"
       x2="-229.75377"
       y2="-2" />
    <filter
       inkscape:collect="always"
       id="filter4144">
      <feGaussianBlur
         inkscape:collect="always"
         stdDeviation="0.7"
         id="feGaussianBlur4146" />
    </filter>
    <linearGradient
       inkscape:collect="always"
       xlink:href="#linearGradient3245"
       id="linearGradient4153"
       gradientUnits="userSpaceOnUse"
       gradientTransform="matrix(0.7000187,0,0,0.7000187,-65.177182,5.3745318)"
       x1="119.7433"
       y1="17.315649"
       x2="111.59486"
       y2="12.926581" />
    <filter
       inkscape:collect="always"
       id="filter4158"
       x="-0.24"
       width="1.48"
       y="-0.24"
       height="1.48">
      <feGaussianBlur
         inkscape:collect="always"
         stdDeviation="0.66262488"
         id="feGaussianBlur4160" />
    </filter>
  </defs>
  <sodipodi:namedview
     id="base"
     pagecolor="#ffffff"
     bordercolor="#666666"
     borderopacity="1.0"
     inkscape:pageopacity="0.0"
     inkscape:pageshadow="2"
     inkscape:zoom="1"
     inkscape:cx="15.532905"
     inkscape:cy="14.679277"
     inkscape:current-layer="layer1"
     showgrid="false"
     inkscape:grid-bbox="true"
     inkscape:document-units="px"
     showborder="false">
    <inkscape:grid
       type="xygrid"
       id="grid3605"
       visible="true"
       enabled="true" />
  </sodipodi:namedview>
  <metadata
     id="metadata3504">
    <rdf:RDF>
      <cc:Work
         rdf:about="">
        <dc:format>image/svg+xml</dc:format>
        <dc:type
           rdf:resource="http://purl.org/dc/dcmitype/StillImage" />
      </cc:Work>
    </rdf:RDF>
  </metadata>
  <g
     id="layer1"
     inkscape:label="Layer 1"
     inkscape:groupmode="layer">
    <path
       style="opacity:0.4;fill:#000000;fill-opacity:1;fill-rule:evenodd;stroke:none;stroke-width:4;stroke-linecap:round;stroke-linejoin:round;marker:none;marker-start:none;marker-mid:none;marker-end:none;stroke-miterlimit:4;stroke-dasharray:none;stroke-dashoffset:0;stroke-opacity:1;visibility:visible;display:inline;overflow:visible;filter:url(#filter4144);enable-background:accumulate"
       d="M 16.000005,2 C 8.2720052,2 2.0000052,8.271999 2.0000052,16 C 2.0000052,23.728 8.2720062,30 16.000005,30 C 23.728005,30 30.000006,23.727999 30.000005,16 C 30.000005,8.272 23.728006,2.000001 16.000005,2 z M 16.000005,3 C 23.176003,3.000002 29.000005,8.824 29.000005,16 C 29.000005,23.175999 23.176003,29 16.000005,29 C 8.8240062,29 3.0000052,23.176 3.0000052,16 C 3.0000052,8.824 8.8240072,3 16.000005,3 z"
       id="path4138" />
    <path
       sodipodi:type="arc"
       style="opacity:1;fill:url(#linearGradient3565);fill-opacity:1;fill-rule:evenodd;stroke:none;stroke-width:4;stroke-linecap:round;stroke-linejoin:round;marker:none;marker-start:none;marker-mid:none;marker-end:none;stroke-miterlimit:4;stroke-dasharray:none;stroke-dashoffset:0;stroke-opacity:1;visibility:visible;display:inline;overflow:visible;enable-background:accumulate"
       id="path3539"
       sodipodi:cx="-227"
       sodipodi:cy="65"
       sodipodi:rx="28"
       sodipodi:ry="28"
       d="M -199,65 A 28,28 0 1 1 -255,65 A 28,28 0 1 1 -199,65 z"
       transform="matrix(0.5,0,0,0.5,129.5,-16.499999)" />
    <path
       style="opacity:0.22999998;fill:#000000;fill-opacity:1;fill-rule:evenodd;stroke:none;stroke-width:4;stroke-linecap:round;stroke-linejoin:round;marker:none;marker-start:none;marker-mid:none;marker-end:none;stroke-miterlimit:4;stroke-dasharray:none;stroke-dashoffset:0;stroke-opacity:1;visibility:visible;display:inline;overflow:visible;enable-background:accumulate"
       d="M 16.000005,2 C 8.2720052,2 2.0000052,8.271999 2.0000052,16 C 2.0000052,23.728 8.2720062,30 16.000005,30 C 23.728005,30 30.000006,23.727999 30.000005,16 C 30.000005,8.272 23.728006,2.000001 16.000005,2 z M 16.000005,3 C 23.176003,3.000002 29.000005,8.824 29.000005,16 C 29.000005,23.175999 23.176003,29 16.000005,29 C 8.8240062,29 3.0000052,23.176 3.0000052,16 C 3.0000052,8.824 8.8240072,3 16.000005,3 z"
       id="path3541" />
    <path
       style="opacity:1;fill:#ffffff;fill-opacity:0.53731346;fill-rule:evenodd;stroke:none;stroke-width:4;stroke-linecap:round;stroke-linejoin:round;marker:none;marker-start:none;marker-mid:none;marker-end:none;stroke-miterlimit:4;stroke-dasharray:none;stroke-dashoffset:0;stroke-opacity:1;visibility:visible;display:inline;overflow:visible;enable-background:accumulate"
       d="M 16.000005,3 C 8.8240072,3 3.0000052,8.824 3.0000052,16 C 3.0000052,16.167008 3.0250052,16.334513 3.0312552,16.5 C 3.2936652,9.554839 8.9910152,4 16.000005,4 C 23.008995,4.000002 28.706345,9.554839 28.968755,16.5 C 28.975008,16.334513 29.000005,16.167008 29.000005,16 C 29.000005,8.824 23.176003,3.000002 16.000005,3 z"
       id="path3543" />
    <path
       style="opacity:1;fill:#ffffff;fill-opacity:0.34199135;fill-rule:evenodd;stroke:none;stroke-width:4;stroke-linecap:round;stroke-linejoin:round;marker:none;marker-start:none;marker-mid:none;marker-end:none;stroke-miterlimit:4;stroke-dasharray:none;stroke-dashoffset:0;stroke-opacity:1;visibility:visible;display:inline;overflow:visible;enable-background:accumulate"
       d="M 16.000005,29 C 8.8240072,29 3.0000052,23.176 3.0000052,16 C 3.0000052,15.832992 3.0250052,15.665487 3.0312552,15.5 C 3.2936652,22.445161 8.9910152,28 16.000005,28 C 23.008995,27.999998 28.706345,22.445161 28.968755,15.5 C 28.975008,15.665487 29.000005,15.832992 29.000005,16 C 29.000005,23.176 23.176003,28.999998 16.000005,29 z"
       id="path3545" />
    <path
       style="fill:#ffffff;fill-opacity:1;fill-rule:evenodd;stroke:none;stroke-width:1;stroke-linecap:round;stroke-linejoin:round;marker:none;stroke-miterlimit:4;stroke-dasharray:none;stroke-dashoffset:0;stroke-opacity:1;visibility:visible;display:inline;overflow:visible;filter:url(#filter4158);enable-background:accumulate"
       d="M -109,4 C -110.656,4 -112,5.344 -112,7 C -112,7.0538767 -112.00281,7.1030693 -112,7.15625 C -112.00255,7.2095519 -112,7.2585695 -112,7.3125 C -112,9.1410001 -110.516,10.625 -108.6875,10.625 C -106.859,10.625 -105.375,9.1410003 -105.375,7.3125 C -105.375,5.4839999 -106.859,4.0000001 -108.6875,4 C -108.74143,4 -108.79045,3.9974473 -108.84375,4 C -108.89693,3.9971904 -108.94612,4 -109,4 z"
       id="path3549"
       transform="matrix(0.7000187,0,0,0.7000187,92.327025,5.3745318)" />
    <path
       style="opacity:0.67346939;fill:#ffffff;fill-opacity:1;fill-rule:evenodd;stroke:none;stroke-width:1;stroke-linecap:round;stroke-linejoin:round;marker:none;stroke-miterlimit:4;stroke-dasharray:none;stroke-dashoffset:0;stroke-opacity:1;visibility:visible;display:inline;overflow:visible;filter:url(#filter3374);enable-background:accumulate"
       d="M -114,12 L -114,14 L -114,14.5 C -113.99997,14.776131 -113.77613,14.999972 -113.5,15 L -112,15 L -112,23 L -114,23 L -114,25 L -114,25.5 C -113.99997,25.776131 -113.77613,25.999972 -113.5,26 L -103.5,26 C -103.22387,25.999972 -103.00003,25.776131 -103,25.5 L -103,23.5 C -103.00003,23.223869 -103.22387,23.000028 -103.5,23 L -104,23 L -105,23 L -105,14.5 L -105,12.5 C -105.00003,12.223869 -105.22387,12.000028 -105.5,12 L -106,12 L -114,12 z"
       id="path3551"
       transform="matrix(0.7000187,0,0,0.7000187,92.327025,5.3745318)" />
    <path
       style="opacity:0.15;fill:#ffffff;fill-opacity:1;fill-rule:evenodd;stroke:none;stroke-width:1;stroke-linecap:round;stroke-linejoin:round;marker:none;stroke-miterlimit:4;stroke-dasharray:none;stroke-dashoffset:0;stroke-opacity:1;visibility:visible;display:inline;overflow:visible;enable-background:accumulate"
       d="M 12.809276,13.774756 C 12.641943,13.806685 12.52189,13.95444 12.524893,14.124766 L 12.524893,15.524803 C 12.524914,15.7181 12.681606,15.874793 12.874903,15.874812 L 13.924931,15.874812 L 13.924931,21.474962 L 12.874903,21.474962 C 12.681606,21.474982 12.524914,21.631674 12.524893,21.824971 L 12.524893,23.225009 C 12.524914,23.418306 12.681606,23.574998 12.874903,23.575018 L 19.87509,23.575018 C 20.068386,23.574998 20.225078,23.418306 20.225099,23.225009 L 20.225099,21.824971 C 20.225078,21.631674 20.068386,21.474982 19.87509,21.474962 L 18.825062,21.474962 L 18.825062,15.524803 L 18.825062,14.124766 C 18.82504,13.931469 18.668348,13.774776 18.475052,13.774756 L 12.874903,13.774756 C 12.853076,13.772701 12.831102,13.772701 12.809276,13.774756 z"
       id="path3553" />
    <path
       style="fill:url(#linearGradient4153);fill-opacity:1;fill-rule:evenodd;stroke:none;stroke-width:1.33333337;stroke-linecap:round;stroke-linejoin:round;marker:none;marker-start:none;marker-mid:none;marker-end:none;stroke-miterlimit:4;stroke-dasharray:none;stroke-dashoffset:0;stroke-opacity:1;visibility:visible;display:inline;overflow:visible;enable-background:accumulate"
       d="M 12.524893,13.774756 L 12.524893,15.174794 L 13.924931,15.174794 L 13.924931,21.474962 L 12.524893,21.474962 L 12.524893,22.874999 L 19.52508,22.874999 L 19.52508,21.474962 L 18.125043,21.474962 L 18.125043,15.174794 L 18.125043,13.774756 L 12.524893,13.774756 z"
       id="path3555" />
    <path
       style="opacity:0.56734691;fill:#606060;fill-opacity:1;fill-rule:evenodd;stroke:none;stroke-width:1;stroke-linecap:round;stroke-linejoin:round;marker:none;stroke-miterlimit:4;stroke-dasharray:none;stroke-dashoffset:0;stroke-opacity:1;visibility:visible;display:inline;overflow:visible;enable-background:accumulate"
       d="M 13.224912,14.49665 L 18.125043,14.49665 L 18.125043,15.546679 L 18.125043,21.846847 C 18.125064,22.040144 18.281756,22.196837 18.475052,22.196856 L 19.52508,22.196856 L 19.52508,22.896875 L 13.224912,22.896875 L 13.224912,22.196856 L 14.27494,22.196856 C 14.468236,22.196837 14.624928,22.040144 14.624949,21.846847 L 14.624949,15.546679 C 14.624928,15.353382 14.468236,15.196689 14.27494,15.196669 L 13.224912,15.196669 L 13.224912,14.49665 z"
       id="path3557" />
    <path
       sodipodi:type="arc"
       style="opacity:0.43000004;fill:#ffffff;fill-opacity:1;fill-rule:evenodd;stroke:none;stroke-width:1;stroke-linecap:round;stroke-linejoin:round;marker:none;marker-start:none;marker-mid:none;marker-end:none;stroke-miterlimit:4;stroke-dasharray:none;stroke-dashoffset:0;stroke-opacity:1;visibility:visible;display:inline;overflow:visible;enable-background:accumulate"
       id="path3559"
       sodipodi:cx="116.5"
       sodipodi:cy="7.5"
       sodipodi:rx="3.5"
       sodipodi:ry="3.5"
       d="M 120,7.5 A 3.5,3.5 0 1 1 113,7.5 A 3.5,3.5 0 1 1 120,7.5 z"
       transform="matrix(0.6625177,0,0,0.6625177,-60.93957,5.5245358)" />
    <path
       style="fill:#000000;fill-opacity:1;fill-rule:evenodd;stroke:none;stroke-width:1.33333337;stroke-linecap:round;stroke-linejoin:round;marker:none;marker-start:none;marker-mid:none;marker-end:none;stroke-miterlimit:4;stroke-dasharray:none;stroke-dashoffset:0;stroke-opacity:1;visibility:visible;display:inline;overflow:visible;enable-background:accumulate"
       d="M 16.024987,8.1746066 C 14.865756,8.1746066 13.924931,9.1154317 13.924931,10.274663 C 13.924931,11.433894 14.865756,12.374719 16.024987,12.374719 C 17.184218,12.374719 18.125043,11.433894 18.125043,10.274663 C 18.125043,9.1154317 17.184218,8.1746066 16.024987,8.1746066 z"
       id="path3561" />
    <path
       style="opacity:0.56734691;fill:#606060;fill-opacity:1;fill-rule:evenodd;stroke:none;stroke-width:1;stroke-linecap:round;stroke-linejoin:round;marker:none;marker-start:none;marker-mid:none;marker-end:none;stroke-miterlimit:4;stroke-dasharray:none;stroke-dashoffset:0;stroke-opacity:1;visibility:visible;display:inline;overflow:visible;enable-background:accumulate"
       d="M 16.19353,8.6818428 C 15.19564,8.6818428 14.38576,9.4917224 14.38576,10.48961 C 14.38576,11.487497 15.19564,12.297377 16.19353,12.297377 C 17.191414,12.297377 18.001293,11.487497 18.001293,10.48961 C 18.001293,9.4917224 17.191414,8.6818428 16.19353,8.6818428 z"
       id="path3563" />
  </g>
</svg>
